<?xml version="1.0" encoding="UTF-8" standalone="no"?>
<!DOCTYPE svg PUBLIC "-//W3C//DTD SVG 1.1//EN" "http://www.w3.org/Graphics/SVG/1.1/DTD/svg11.dtd">
<svg width="100%" height="100%" viewBox="0 0 1024 1024" version="1.1" xmlns="http://www.w3.org/2000/svg" xmlns:xlink="http://www.w3.org/1999/xlink" xml:space="preserve" xmlns:serif="http://www.serif.com/" style="fill-rule:evenodd;clip-rule:evenodd;stroke-linejoin:round;stroke-miterlimit:2;">
    <g transform="matrix(0.960947,0,0,1.12721,3.63681,-8.38569)">
        <path d="M967.759,140.767C967.759,97.925 926.958,63.142 876.703,63.142L174.271,63.142C124.016,63.142 83.215,97.925 83.215,140.767C83.215,140.767 83.215,251.661 83.215,251.661C83.215,294.504 124.016,329.286 174.271,329.286C174.271,329.286 876.703,329.286 876.703,329.286C926.958,329.286 967.759,294.504 967.759,251.661C967.759,251.661 967.759,140.767 967.759,140.767ZM915.727,140.767L915.727,251.661C915.727,270.022 898.241,284.929 876.703,284.929L174.271,284.929C152.733,284.929 135.247,270.022 135.247,251.661L135.247,140.767C135.247,122.406 152.733,107.499 174.271,107.499C174.271,107.499 876.703,107.499 876.703,107.499C898.241,107.499 915.727,122.406 915.727,140.767Z"/>
    </g>
</svg>
