<?xml version="1.0" encoding="UTF-8" standalone="no"?>
<!DOCTYPE svg PUBLIC "-//W3C//DTD SVG 1.1//EN" "http://www.w3.org/Graphics/SVG/1.1/DTD/svg11.dtd">
<svg width="100%" height="100%" viewBox="0 0 1024 1024" version="1.1" xmlns="http://www.w3.org/2000/svg" xmlns:xlink="http://www.w3.org/1999/xlink" xml:space="preserve" xmlns:serif="http://www.serif.com/" style="fill-rule:evenodd;clip-rule:evenodd;stroke-linejoin:round;stroke-miterlimit:2;">
    <rect x="0" y="0" width="1024" height="1024" style="fill:white;"/>
    <g transform="matrix(1,0,0,1,512,512)">
        <g transform="matrix(1,0,0,1,-512,-512)">
            <g transform="matrix(0.884676,0,0,0.884676,7.65682,90.5669)">
                <path d="M678.473,452.546C678.473,402.817 638.1,362.443 588.37,362.443L146.88,362.443C97.15,362.443 56.777,402.817 56.777,452.546L56.777,894.037C56.777,943.766 97.15,984.14 146.88,984.14L588.37,984.14C638.1,984.14 678.473,943.766 678.473,894.037L678.473,452.546ZM621.955,452.546L621.955,894.037C621.955,912.573 606.906,927.622 588.37,927.622L146.88,927.622C128.344,927.622 113.295,912.573 113.295,894.037L113.295,452.546C113.295,434.01 128.344,418.961 146.88,418.961L588.37,418.961C606.906,418.961 621.955,434.01 621.955,452.546Z" style="fill:rgb(212,0,0);"/>
            </g>
        </g>
    </g>
    <g transform="matrix(1,0,0,1,512,512)">
        <g transform="matrix(1,0,0,1,-512,-512)">
            <g transform="matrix(0.960947,0,0,1.12721,3.63681,-8.38569)">
                <path d="M967.759,140.767C967.759,97.925 926.958,63.142 876.703,63.142L174.271,63.142C124.016,63.142 83.215,97.925 83.215,140.767L83.215,251.661C83.215,294.504 124.016,329.286 174.271,329.286L876.703,329.286C926.958,329.286 967.759,294.504 967.759,251.661L967.759,140.767ZM915.727,140.767L915.727,251.661C915.727,270.022 898.241,284.929 876.703,284.929L174.271,284.929C152.733,284.929 135.247,270.022 135.247,251.661L135.247,140.767C135.247,122.406 152.733,107.499 174.271,107.499L876.703,107.499C898.241,107.499 915.727,122.406 915.727,140.767Z" style="fill:rgb(24,135,2);"/>
            </g>
        </g>
    </g>
    <g transform="matrix(1,0,0,1,512,512)">
        <g transform="matrix(1,0,0,1,-512,-512)">
            <g transform="matrix(0.924334,0,0,0.948339,74.137,76.1082)">
                <path d="M964.994,445.625C964.994,394.702 922.577,353.359 870.332,353.359L735.099,353.359C682.853,353.359 640.436,394.702 640.436,445.625L640.436,841.054C640.436,891.977 682.853,933.32 735.099,933.32L870.332,933.32C922.577,933.32 964.994,891.977 964.994,841.054L964.994,445.625ZM910.901,445.625L910.901,841.054C910.901,862.878 892.723,880.596 870.332,880.596L735.099,880.596C712.708,880.596 694.529,862.878 694.529,841.054L694.529,445.625C694.529,423.801 712.708,406.083 735.099,406.083L870.332,406.083C892.723,406.083 910.901,423.801 910.901,445.625Z" style="fill:rgb(0,64,211);"/>
            </g>
        </g>
    </g>
</svg>
