<?xml version="1.0" encoding="UTF-8" standalone="no"?>
<!DOCTYPE svg PUBLIC "-//W3C//DTD SVG 1.1//EN" "http://www.w3.org/Graphics/SVG/1.1/DTD/svg11.dtd">
<svg width="100%" height="100%" viewBox="0 0 1024 1024" version="1.1" xmlns="http://www.w3.org/2000/svg" xmlns:xlink="http://www.w3.org/1999/xlink" xml:space="preserve" xmlns:serif="http://www.serif.com/" style="fill-rule:evenodd;clip-rule:evenodd;stroke-linejoin:round;stroke-miterlimit:2;">
    <g transform="matrix(0.924334,0,0,0.948339,74.137,76.1082)">
        <path d="M964.994,445.625C964.994,394.702 922.577,353.359 870.332,353.359L735.099,353.359C682.853,353.359 640.436,394.702 640.436,445.625C640.436,445.625 640.436,841.054 640.436,841.054C640.436,891.977 682.853,933.32 735.099,933.32C735.099,933.32 870.332,933.32 870.332,933.32C922.577,933.32 964.994,891.977 964.994,841.054C964.994,841.054 964.994,445.625 964.994,445.625ZM910.901,445.625L910.901,841.054C910.901,862.878 892.723,880.596 870.332,880.596L735.099,880.596C712.708,880.596 694.529,862.878 694.529,841.054L694.529,445.625C694.529,423.801 712.708,406.083 735.099,406.083C735.099,406.083 870.332,406.083 870.332,406.083C892.723,406.083 910.901,423.801 910.901,445.625Z"/>
    </g>
</svg>
